<svg width="16" height="19" viewBox="0 0 16 19" fill="none" xmlns="http://www.w3.org/2000/svg">
<path d="M6.94 17.717C7.22125 17.9979 7.6025 18.1557 8 18.1557C8.3975 18.1557 8.77875 17.9979 9.06 17.717L14.719 12.061C15.0004 11.7796 15.1585 11.3979 15.1585 11C15.1585 10.602 15.0004 10.2204 14.719 9.93899C14.4376 9.6576 14.0559 9.49951 13.658 9.49951C13.26 9.49951 12.8784 9.6576 12.597 9.93899L9.5 13.035L9.5 1.49999C9.5 1.10217 9.34196 0.720636 9.06066 0.439332C8.77935 0.158027 8.39782 -8.94571e-06 8 -8.91093e-06C7.60217 -8.87615e-06 7.22064 0.158027 6.93934 0.439332C6.65803 0.720636 6.5 1.10217 6.5 1.49999L6.5 13.035L3.404 9.93899C3.26466 9.79966 3.09925 9.68913 2.91721 9.61373C2.73516 9.53832 2.54004 9.49951 2.343 9.49951C2.14595 9.49951 1.95083 9.53832 1.76879 9.61373C1.58674 9.68913 1.42133 9.79966 1.282 9.93899C1.14266 10.0783 1.03214 10.2437 0.956734 10.4258C0.881328 10.6078 0.842516 10.8029 0.842516 11C0.842516 11.197 0.881328 11.3922 0.956734 11.5742C1.03214 11.7562 1.14266 11.9217 1.282 12.061L6.94 17.717Z" fill="white"/>
</svg>
