<svg width="16" height="19" viewBox="0 0 16 19" fill="none" xmlns="http://www.w3.org/2000/svg">
<path d="M9.06 1.28301C8.77875 1.00211 8.3975 0.84433 8 0.84433C7.6025 0.84433 7.22125 1.00211 6.94 1.28301L1.281 6.93901C0.999608 7.2204 0.841522 7.60206 0.841522 8.00001C0.841522 8.39796 0.999608 8.77962 1.281 9.06101C1.5624 9.34241 1.94405 9.50049 2.342 9.50049C2.73996 9.50049 3.12161 9.34241 3.403 9.06101L6.5 5.96501V17.5C6.5 17.8978 6.65804 18.2794 6.93934 18.5607C7.22065 18.842 7.60218 19 8 19C8.39783 19 8.77936 18.842 9.06066 18.5607C9.34197 18.2794 9.5 17.8978 9.5 17.5V5.96501L12.596 9.06101C12.7353 9.20034 12.9007 9.31087 13.0828 9.38627C13.2648 9.46168 13.46 9.50049 13.657 9.50049C13.854 9.50049 14.0492 9.46168 14.2312 9.38627C14.4133 9.31087 14.5787 9.20034 14.718 9.06101C14.8573 8.92168 14.9679 8.75627 15.0433 8.57422C15.1187 8.39217 15.1575 8.19706 15.1575 8.00001C15.1575 7.80296 15.1187 7.60785 15.0433 7.4258C14.9679 7.24375 14.8573 7.07834 14.718 6.93901L9.06 1.28301Z" fill="white"/>
</svg>
